<svg xmlns="http://www.w3.org/2000/svg" width="600" height="340" viewBox="0 0 600 340">
  <defs>
    <linearGradient id="bg" x1="0%" y1="0%" x2="100%" y2="100%">
      <stop offset="0%" style="stop-color:#7c3aed;stop-opacity:1" />
      <stop offset="100%" style="stop-color:#db2777;stop-opacity:1" />
    </linearGradient>
  </defs>
  <rect width="600" height="340" fill="url(#bg)" rx="12"/>
  <!-- Stats row -->
  <rect x="60" y="50" width="106" height="70" rx="8" fill="rgba(255,255,255,0.15)"/>
  <text x="113" y="80" font-family="Arial,sans-serif" font-size="20" font-weight="bold" fill="white" text-anchor="middle">$48K</text>
  <text x="113" y="100" font-family="Arial,sans-serif" font-size="10" fill="rgba(255,255,255,0.7)" text-anchor="middle">Revenue</text>
  <text x="113" y="114" font-family="Arial,sans-serif" font-size="10" fill="#86efac" text-anchor="middle">▲ 12.5%</text>
  <rect x="178" y="50" width="106" height="70" rx="8" fill="rgba(255,255,255,0.15)"/>
  <text x="231" y="80" font-family="Arial,sans-serif" font-size="20" font-weight="bold" fill="white" text-anchor="middle">1,284</text>
  <text x="231" y="100" font-family="Arial,sans-serif" font-size="10" fill="rgba(255,255,255,0.7)" text-anchor="middle">Users</text>
  <text x="231" y="114" font-family="Arial,sans-serif" font-size="10" fill="#86efac" text-anchor="middle">▲ 8.2%</text>
  <rect x="296" y="50" width="106" height="70" rx="8" fill="rgba(255,255,255,0.15)"/>
  <text x="349" y="80" font-family="Arial,sans-serif" font-size="20" font-weight="bold" fill="white" text-anchor="middle">349</text>
  <text x="349" y="100" font-family="Arial,sans-serif" font-size="10" fill="rgba(255,255,255,0.7)" text-anchor="middle">Orders</text>
  <text x="349" y="114" font-family="Arial,sans-serif" font-size="10" fill="#fca5a5" text-anchor="middle">▼ 3.1%</text>
  <rect x="414" y="50" width="126" height="70" rx="8" fill="rgba(255,255,255,0.15)"/>
  <text x="477" y="80" font-family="Arial,sans-serif" font-size="20" font-weight="bold" fill="white" text-anchor="middle">98.2%</text>
  <text x="477" y="100" font-family="Arial,sans-serif" font-size="10" fill="rgba(255,255,255,0.7)" text-anchor="middle">Uptime</text>
  <text x="477" y="114" font-family="Arial,sans-serif" font-size="10" fill="#86efac" text-anchor="middle">▲ 0.3%</text>
  <!-- Bar chart -->
  <rect x="60" y="138" width="310" height="170" rx="8" fill="rgba(255,255,255,0.1)"/>
  <text x="80" y="160" font-family="Arial,sans-serif" font-size="12" font-weight="bold" fill="white">Monthly Revenue</text>
  <!-- Bars -->
  <rect x="82" y="240" width="28" height="50" rx="3" fill="rgba(255,255,255,0.4)"/>
  <rect x="120" y="220" width="28" height="70" rx="3" fill="rgba(255,255,255,0.4)"/>
  <rect x="158" y="200" width="28" height="90" rx="3" fill="rgba(255,255,255,0.5)"/>
  <rect x="196" y="230" width="28" height="60" rx="3" fill="rgba(255,255,255,0.4)"/>
  <rect x="234" y="185" width="28" height="105" rx="3" fill="rgba(255,255,255,0.6)"/>
  <rect x="272" y="205" width="28" height="85" rx="3" fill="rgba(255,255,255,0.5)"/>
  <rect x="310" y="175" width="28" height="115" rx="3" fill="rgba(255,255,255,0.7)"/>
  <text x="96" y="302" font-family="Arial,sans-serif" font-size="8" fill="rgba(255,255,255,0.6)" text-anchor="middle">Sep</text>
  <text x="134" y="302" font-family="Arial,sans-serif" font-size="8" fill="rgba(255,255,255,0.6)" text-anchor="middle">Oct</text>
  <text x="172" y="302" font-family="Arial,sans-serif" font-size="8" fill="rgba(255,255,255,0.6)" text-anchor="middle">Nov</text>
  <text x="210" y="302" font-family="Arial,sans-serif" font-size="8" fill="rgba(255,255,255,0.6)" text-anchor="middle">Dec</text>
  <text x="248" y="302" font-family="Arial,sans-serif" font-size="8" fill="rgba(255,255,255,0.6)" text-anchor="middle">Jan</text>
  <text x="286" y="302" font-family="Arial,sans-serif" font-size="8" fill="rgba(255,255,255,0.6)" text-anchor="middle">Feb</text>
  <text x="324" y="302" font-family="Arial,sans-serif" font-size="8" fill="rgba(255,255,255,0.6)" text-anchor="middle">Mar</text>
  <!-- Donut chart -->
  <rect x="385" y="138" width="155" height="170" rx="8" fill="rgba(255,255,255,0.1)"/>
  <text x="462" y="160" font-family="Arial,sans-serif" font-size="12" font-weight="bold" fill="white" text-anchor="middle">Traffic</text>
  <circle cx="462" cy="232" r="55" fill="none" stroke="rgba(255,255,255,0.15)" stroke-width="22"/>
  <circle cx="462" cy="232" r="55" fill="none" stroke="#a78bfa" stroke-width="22" stroke-dasharray="138 207" stroke-dashoffset="0"/>
  <circle cx="462" cy="232" r="55" fill="none" stroke="#f9a8d4" stroke-width="22" stroke-dasharray="83 262" stroke-dashoffset="-138"/>
  <circle cx="462" cy="232" r="55" fill="none" stroke="#67e8f9" stroke-width="22" stroke-dasharray="124 221" stroke-dashoffset="-221"/>
  <text x="462" y="236" font-family="Arial,sans-serif" font-size="11" fill="white" text-anchor="middle">Mixed</text>
</svg>
